<!--?xml version="1.0" encoding="utf-8"?-->
<!-- Generator: Adobe Illustrator 18.1.1, SVG Export Plug-In . SVG Version: 6.00 Build 0)  -->

<svg version="1.1" id="_x31_0" xmlns="http://www.w3.org/2000/svg" xmlns:xlink="http://www.w3.org/1999/xlink" x="0px" y="0px" viewBox="0 0 512 512" style="width: 256px; height: 256px; opacity: 1;" xml:space="preserve">
<style type="text/css">
	.st0{fill:#374149;}
</style>
<g>
	<path class="st0" d="M511.907,264.592l-23.938-137.664l-2.938-16.946c-0.473-2.71-2.641-4.808-5.367-5.187l-11.309-1.578
		L322.391,82.693L32.313,232.045c-2.805,1.445-4.778,4.113-5.332,7.218l-4.457,24.863L0.161,389.061
		c-1.012,5.653,2.87,11.016,8.558,11.813l189.156,26.582l12.559,1.754c2.16,0.301,4.359-0.102,6.273-1.153l10.891-5.976
		L508.66,271.26C511.067,269.967,512.372,267.283,511.907,264.592z M203.148,281.357l-0.27-1.445v-0.035l249.352-133.466
		c3.805-2.038,8.488,0.246,9.23,4.5l17.742,102.098l-1.141,0.605l-4.906,2.719L234.512,384.002
		c-6.086,3.258-13.574-0.394-14.754-7.195l-16.004-91.958v-0.031L203.148,281.357z M414.571,126.17
		c2.984,0.422,3.691,4.406,1.035,5.828L183.297,256.166h-0.066L95.09,243.783c-2.434-0.343-3.012-3.598-0.844-4.754l232.946-124.496
		l0.942-0.504L414.571,126.17z M53.246,281.521c0.961-5.359,5.988-9.004,11.379-8.246l98.742,13.874
		c4.356,0.61,7.817,3.958,8.57,8.29l0.481,2.746l0.602,3.493v0.031l13.402,77.015c1.179,6.77-4.582,12.723-11.387,11.766
		L44.489,372.174l-0.035-0.035l-5.508-0.77h-0.031l-1.715-0.238L53.246,281.521z" style="fill: rgb(244, 168, 64);"></path>
</g>
</svg>
